<svg width="256" height="256" viewBox="0 0 256 256" fill="none" xmlns="http://www.w3.org/2000/svg">
<g clip-path="url(#clip0_42_2)">
<circle cx="128" cy="128" r="128" fill="#E42618"/>
<path d="M88.8 146.4C88.3333 146.4 87.8667 146.4 87.4 146.4C87 146.4 86.5333 146.4 86 146.4C84.2 146.4 82.8333 145.9 81.9 144.9C81.0333 143.9 80.6 142.867 80.6 141.8C80.6 140.667 81.0333 139.667 81.9 138.8C82.8333 137.867 84.1333 137.4 85.8 137.4C86.4 137.4 87.0333 137.4 87.7 137.4C88.3667 137.4 89 137.4 89.6 137.4C91.2 137.4 92.3667 137.8 93.1 138.6C93.8333 139.333 94.2 140.267 94.2 141.4C94.2 142.6 93.7333 143.733 92.8 144.8C91.8667 145.867 90.5333 146.4 88.8 146.4ZM82.2 114C81.8 114 81.4 114 81 114C80.6 114 80.2 114 79.8 114C77.5333 114 76.0333 113.367 75.3 112.1C74.5667 110.767 74.2 109.267 74.2 107.6C74.2 106.267 74.6 105.067 75.4 104C76.2 102.933 77.3333 102.4 78.8 102.4C79.4 102.4 80.0333 102.4 80.7 102.4C81.3667 102.4 82 102.4 82.6 102.4C84.2 102.4 85.5 102.967 86.5 104.1C87.5 105.167 88 106.667 88 108.6C88 110.4 87.6667 111.767 87 112.7C86.4 113.567 84.8 114 82.2 114ZM50.6 89.2C53.8 89.2 56.2 90.0667 57.8 91.8C59.4 93.4667 60.2 96.1333 60.2 99.8C60.2 102.6 59.4333 104.733 57.9 106.2C56.3667 107.667 54.1333 108.4 51.2 108.4C47.8 108.4 45.2 107.433 43.4 105.5C41.6667 103.5 40.8 100.8 40.8 97.4C40.8 94.6 41.7 92.5333 43.5 91.2C45.3667 89.8667 47.7333 89.2 50.6 89.2ZM34.6 186C34.6 183.667 35.1667 181.967 36.3 180.9C37.5 179.767 39.3333 178.8 41.8 178C43.3333 177.467 44.9333 177.033 46.6 176.7C48.3333 176.3 50.1333 175.8 52 175.2C55 174.2 57.1667 173.067 58.5 171.8C59.8333 170.533 60.7333 168.667 61.2 166.2C61.3333 165.6 61.4333 165.033 61.5 164.5C61.6333 163.967 61.7333 163.4 61.8 162.8C69.3333 164.267 74.4333 164.5 77.1 163.5C79.7667 162.433 81.1 160.6 81.1 158C81.1667 156.067 80.0333 154.6 77.7 153.6C75.4333 152.6 70.8667 151.8 64 151.2C64.4 149.2 64.8 147.233 65.2 145.3C65.6667 143.367 66 141.4 66.2 139.4C70.6667 139.667 74.2 139.667 76.8 139.4C79.4 139.067 81.2333 138.467 82.3 137.6C83.4333 136.733 84 135.5 84 133.9C84 131.833 82.8667 130.267 80.6 129.2C78.4 128.067 74.3333 127.2 68.4 126.6C69.6667 119.4 70.8667 112.167 72 104.9C73.1333 97.5667 74.2 90.2667 75.2 83C75.6 80 75.3667 78.1 74.5 77.3C73.6333 76.5 72 76.2 69.6 76.4C66.0667 76.4667 63.1667 76.6333 60.9 76.9C58.7 77.1667 56 77.4 52.8 77.6C49.1333 77.6667 46.1333 77.2667 43.8 76.4C41.5333 75.4667 40.4 73.4 40.4 70.2C40.4 67.4667 41.5 65.4 43.7 64C45.9667 62.6 49.5333 61.6667 54.4 61.2C61.6 60.4667 70.0667 59.6667 79.8 58.8C89.5333 57.8667 98.7333 57.1333 107.4 56.6C111.733 56.2667 114.867 56.5333 116.8 57.4C118.8 58.2 119.8 60 119.8 62.8C119.8 65.2 118.933 67.1 117.2 68.5C115.467 69.9 113.2 71.1333 110.4 72.2C108.2 73.0667 105.833 73.8667 103.3 74.6C100.833 75.3333 97.9333 76.3333 94.6 77.6C92.2 78.4667 90.6333 79.5 89.9 80.7C89.2333 81.8333 89 83.4 89.2 85.4C90.4 99.8 91.8333 114.2 93.5 128.6C95.1667 143 97 157.4 99 171.8C99.3333 174 99.9667 175.667 100.9 176.8C101.9 177.867 103.4 178.667 105.4 179.2C107.133 179.6 108.667 179.9 110 180.1C111.333 180.3 112.8 180.6 114.4 181C116.333 181.4 118.067 182.067 119.6 183C121.2 183.867 122 185.467 122 187.8C122 189.867 121.467 191.433 120.4 192.5C119.333 193.5 117.867 194.167 116 194.5C114.133 194.833 112 195 109.6 195C108.733 195 107.333 195 105.4 195C103.533 194.933 101.367 194.867 98.9 194.8C98.1667 194.8 97.4 194.767 96.6 194.7C95.8 194.633 94.9667 194.6 94.1 194.6C93.3 194.6 92.4667 194.6 91.6 194.6C90.7333 194.6 89.8 194.6 88.8 194.6C87.8667 194.533 86.9333 194.5 86 194.5C85.0667 194.433 84.1 194.4 83.1 194.4C81.5 194.333 79.8667 194.3 78.2 194.3C76.6 194.3 75 194.267 73.4 194.2C72.3333 194.133 71.2333 194.1 70.1 194.1C69.0333 194.033 67.9667 194 66.9 194C65.9 193.933 64.8667 193.9 63.8 193.9C63.0667 193.9 62.3 193.9 61.5 193.9C60.7667 193.833 60.0333 193.8 59.3 193.8C58.5667 193.733 57.8667 193.7 57.2 193.7C54.8667 193.567 52.7667 193.467 50.9 193.4C49.1 193.333 47.6667 193.267 46.6 193.2C43 193 40.1 192.433 37.9 191.5C35.7 190.5 34.6 188.667 34.6 186ZM158.792 201.8C152.326 201.8 147.826 200.533 145.292 198C142.759 195.467 141.492 191.367 141.492 185.7C141.492 183.433 141.692 179.6 142.092 174.2C142.559 168.8 143.159 162.4 143.892 155C144.626 147.533 145.426 139.633 146.292 131.3C147.159 122.9 148.059 114.567 148.992 106.3C149.926 98.0333 150.792 90.3333 151.592 83.2C152.459 76.0667 153.192 70.0667 153.792 65.2C154.192 61.8 154.959 59.2667 156.092 57.6C157.292 55.8667 158.992 55 161.192 55C162.859 55 164.192 55.4333 165.192 56.3C166.192 57.1 166.926 58.3667 167.392 60.1C167.859 61.7667 168.126 63.8667 168.192 66.4C168.326 70.2 168.459 74.6667 168.592 79.8C168.726 84.9333 168.859 90.2667 168.992 95.8C168.992 96.8 168.992 97.8 168.992 98.8C168.992 99.7333 169.026 100.7 169.092 101.7C169.092 102.767 169.092 103.867 169.092 105C169.092 106.067 169.126 107.167 169.192 108.3C169.259 109.767 169.292 111.2 169.292 112.6C169.292 114 169.326 115.4 169.392 116.8C169.392 117.467 169.392 118.133 169.392 118.8C169.459 119.467 169.492 120.133 169.492 120.8C169.492 121.4 169.492 122.033 169.492 122.7C169.559 123.433 169.592 124.167 169.592 124.9C169.592 125.567 169.592 126.267 169.592 127C169.659 127.667 169.692 128.333 169.692 129C169.826 131.467 169.926 133.767 169.992 135.9C170.059 138.033 170.126 139.933 170.192 141.6C170.392 145.8 171.192 149 172.592 151.2C173.992 153.4 176.192 155.2 179.192 156.6C181.592 157.733 184.059 158.9 186.592 160.1C189.126 161.233 191.692 162.4 194.292 163.6C196.892 164.8 199.492 166 202.092 167.2C204.759 168.4 207.392 169.6 209.992 170.8C213.326 172.333 216.059 173.9 218.192 175.5C220.326 177.1 221.892 178.867 222.892 180.8C223.892 182.733 224.392 184.933 224.392 187.4C224.392 190.8 223.259 193.6 220.992 195.8C218.726 198 215.326 199.267 210.792 199.6C209.126 199.667 207.459 199.767 205.792 199.9C204.192 200.1 202.592 200.267 200.992 200.4C201.592 194.867 201.792 190.6 201.592 187.6C201.392 184.533 200.826 182.4 199.892 181.2C198.959 180 197.726 179.4 196.192 179.4C194.459 179.4 193.126 180.033 192.192 181.3C191.326 182.567 190.726 184.767 190.392 187.9C190.126 191.033 189.992 195.4 189.992 201C187.926 201.067 185.792 201.133 183.592 201.2C181.459 201.333 179.326 201.4 177.192 201.4C177.192 193.267 176.892 187.2 176.292 183.2C175.759 179.133 174.959 176.467 173.892 175.2C172.826 173.933 171.526 173.267 169.992 173.2C168.192 173.2 166.759 173.933 165.692 175.4C164.626 176.867 163.959 179.667 163.692 183.8C163.492 187.867 163.792 193.8 164.592 201.6C163.592 201.667 162.626 201.7 161.692 201.7C160.759 201.767 159.792 201.8 158.792 201.8ZM152.192 147.8C145.326 147.933 140.026 147.9 136.292 147.7C132.559 147.433 129.959 146.767 128.492 145.7C127.092 144.567 126.392 142.8 126.392 140.4C126.392 136.8 128.259 134.567 131.992 133.7C135.726 132.767 142.792 132.667 153.192 133.4L152.192 147.8ZM161.992 94.6V79.4C170.726 79.4667 177.359 79.6667 181.892 80C186.426 80.3333 189.492 81.0333 191.092 82.1C192.759 83.1667 193.592 84.8 193.592 87C193.592 89.4667 192.726 91.2667 190.992 92.4C189.326 93.4667 186.192 94.1333 181.592 94.4C177.059 94.6667 170.526 94.7333 161.992 94.6ZM163.792 109.6L163.592 96.8C164.592 96.8 165.426 97 166.092 97.4C166.826 97.8 167.359 98.5 167.692 99.5C168.026 100.433 168.192 101.733 168.192 103.4C168.192 105.8 167.826 107.433 167.092 108.3C166.426 109.167 165.326 109.6 163.792 109.6ZM215.392 188.2L203.592 186.2C203.592 184.333 203.792 182.8 204.192 181.6C204.592 180.333 205.192 179.4 205.992 178.8C206.859 178.2 207.926 177.867 209.192 177.8C211.526 177.6 213.092 177.9 213.892 178.7C214.759 179.433 215.226 180.6 215.292 182.2C215.359 183.8 215.392 185.8 215.392 188.2Z" fill="white"/>
</g>
<defs>
<clipPath id="clip0_42_2">
<rect width="256" height="256" fill="white"/>
</clipPath>
</defs>
</svg>
